<?xml version="1.0" standalone="no"?>
<!DOCTYPE svg PUBLIC "-//W3C//DTD SVG 20010904//EN"
 "http://www.w3.org/TR/2001/REC-SVG-20010904/DTD/svg10.dtd">
<svg version="1.0" xmlns="http://www.w3.org/2000/svg"
 width="65.000000pt" height="65.000000pt" viewBox="0 0 516.000000 516.000000"
 preserveAspectRatio="xMidYMid meet">
<metadata>
Created by potrace 1.16, written by Peter Selinger 2001-2019
</metadata>
<g transform="translate(0.000000,516.000000) scale(0.100000,-0.100000)"
fill="" stroke="none">
<path d="M2500 4890 c-157 -9 -230 -19 -230 -31 0 -5 -29 -9 -64 -9 -77 0
-246 -42 -407 -100 -250 -92 -488 -229 -693 -402 -80 -67 -95 -84 -77 -86 19
-3 21 -10 21 -68 l0 -64 -45 0 -45 0 0 -70 0 -70 -55 0 -55 0 0 75 0 75 45 0
c45 0 45 0 45 35 0 35 0 35 -45 35 -43 0 -45 1 -45 28 0 59 -95 98 -140 57
-10 -9 -41 -72 -70 -141 l-53 -125 -56 3 -55 3 -62 99 c-78 125 -101 143 -171
138 l-51 -4 114 -177 c102 -159 114 -182 114 -223 0 -35 -19 -86 -89 -239 -83
-179 -88 -195 -74 -211 10 -12 31 -18 57 -18 23 0 47 -4 54 -9 21 -13 11 -110
-22 -216 -33 -110 -79 -369 -65 -373 5 -2 9 -28 9 -58 0 -42 -3 -54 -15 -54
-13 0 -15 -15 -10 -107 10 -190 16 -253 26 -253 5 0 9 -31 9 -70 0 -79 36
-260 55 -275 6 -5 14 -34 17 -64 3 -34 12 -59 22 -66 9 -7 16 -26 16 -44 0
-67 117 -311 237 -496 181 -279 458 -547 753 -730 263 -163 591 -276 923 -320
201 -26 580 2 811 61 432 109 801 325 1121 655 360 372 587 858 644 1380 11
102 1 366 -19 524 -43 322 -168 660 -345 931 -51 78 -55 89 -55 144 0 32 5 62
10 65 15 9 12 64 -5 123 -12 40 -30 66 -72 108 -31 30 -70 62 -87 71 -38 20
-166 31 -166 14 0 -7 -21 -11 -55 -11 -48 0 -55 3 -55 19 0 13 -32 44 -93 89
-233 176 -489 302 -767 378 -242 67 -451 89 -690 74z m86 -562 c58 -69 70 -78
72 -60 3 20 9 22 58 22 l54 0 0 -62 c0 -35 5 -81 9 -103 5 -22 17 -134 26
-250 18 -224 24 -242 68 -226 24 10 24 2 12 182 l-7 116 23 6 c56 15 106 6
201 -35 54 -24 100 -50 104 -58 3 -8 10 -50 14 -94 8 -82 18 -100 54 -87 14 6
22 19 24 40 l3 31 69 0 69 0 98 -73 c135 -101 304 -281 399 -422 127 -191 203
-384 245 -625 29 -164 29 -487 0 -650 -145 -824 -887 -1338 -1789 -1239 -404
44 -733 209 -1039 521 -171 174 -305 432 -357 690 -43 210 -46 507 -7 728 49
281 195 559 412 785 l81 84 87 3 86 3 5 57 c7 73 22 88 158 162 91 50 109 56
161 56 l58 0 22 -59 c26 -72 84 -134 154 -167 63 -28 132 -41 141 -25 4 6 19
11 34 12 39 1 125 33 130 49 3 9 -2 11 -19 6 -107 -31 -269 -31 -316 -1 -35
24 -63 96 -63 166 l0 59 94 0 c53 0 98 4 101 10 3 6 30 10 58 10 29 0 76 3
105 6 l52 7 0 46 c0 65 -49 146 -112 186 -46 29 -47 31 -47 83 -1 29 4 84 10
123 l12 69 62 0 62 0 69 -82z m-676 -123 l0 -55 -95 0 -95 0 0 55 0 55 95 0
95 0 0 -55z m527 -102 c13 -19 17 -47 18 -107 l0 -81 -122 -3 -123 -3 0 56 c0
30 4 55 9 55 5 0 28 25 51 55 42 55 43 55 96 55 47 0 56 -3 71 -27z"/>
<path d="M2196 2234 c-110 -24 -191 -69 -276 -154 -42 -41 -88 -98 -103 -126
-37 -70 -61 -168 -53 -221 14 -104 96 -212 193 -255 25 -11 81 -26 124 -34
159 -28 296 21 648 231 264 157 290 168 402 173 60 3 111 0 133 -8 49 -16 119
-72 261 -211 66 -64 137 -128 159 -143 35 -24 40 -24 66 -11 75 39 173 192
208 326 48 182 36 268 -48 351 -75 76 -82 73 -366 -113 -250 -164 -268 -172
-397 -167 -124 4 -132 7 -372 167 -188 126 -233 150 -339 186 -84 28 -139 30
-240 9z"/>
<path d="M4782 4672 c-18 -2 -36 -10 -39 -18 -3 -8 7 -144 22 -302 27 -282 28
-287 54 -309 29 -25 73 -30 88 -10 7 8 6 110 -3 301 -13 270 -15 291 -35 312
-24 25 -41 30 -87 26z"/>
<path d="M4817 3897 c-10 -6 -20 -28 -23 -47 -5 -32 -2 -40 35 -73 47 -43 59
-45 95 -16 72 57 -33 191 -107 136z"/>
</g>
</svg>
